[Header]
FileType HTR
DataType HTRS
FileVersion 1
NumSegments 64
NumFrames 3
DataFrameRate 24
EulerRotationOrder ZYX
CalibrationUnits mm
RotationUnits Degrees
GlobalAxisofGravity Y
BoneLengthAxis Y
ScaleFactor 1.0
[SegmentNames&Hierarchy]
Hips	GLOBAL
Spine	Hips
Spine1	Spine
Spine2	Spine1
Neck	Spine2
Head	Neck
LeftEye	Head
RightEye	Head
LeftShoulder	Spine2
LeftArm	LeftShoulder
LeftForeArm	LeftArm
LeftHand	LeftForeArm
LeftHandThumb1	LeftHand
LeftHandThumb2	LeftHandThumb1
LeftHandThumb3	LeftHandThumb2
LeftHandThumb4	LeftHandThumb3
LeftHandIndex1	LeftHand
LeftHandIndex2	LeftHandIndex1
LeftHandIndex3	LeftHandIndex2
LeftHandIndex4	LeftHandIndex3
LeftHandMiddle1	LeftHand
LeftHandMiddle2	LeftHandMiddle1
LeftHandMiddle3	LeftHandMiddle2
LeftHandMiddle4	LeftHandMiddle3
LeftHandRing1	LeftHand
LeftHandRing2	LeftHandRing1
LeftHandRing3	LeftHandRing2
LeftHandRing4	LeftHandRing3
LeftHandPinky1	LeftHand
LeftHandPinky2	LeftHandPinky1
LeftHandPinky3	LeftHandPinky2
LeftHandPinky4	LeftHandPinky3
RightShoulder	Spine2
RightArm	RightShoulder
RightForeArm	RightArm
RightHand	RightForeArm
RightHandPinky1	RightHand
RightHandPinky2	RightHandPinky1
RightHandPinky3	RightHandPinky2
RightHandPinky4	RightHandPinky3
RightHandRing1	RightHand
RightHandRing2	RightHandRing1
RightHandRing3	RightHandRing2
RightHandRing4	RightHandRing3
RightHandMiddle1	RightHand
RightHandMiddle2	RightHandMiddle1
RightHandMiddle3	RightHandMiddle2
RightHandMiddle4	RightHandMiddle3
RightHandIndex1	RightHand
RightHandIndex2	RightHandIndex1
RightHandIndex3	RightHandIndex2
RightHandIndex4	RightHandIndex3
RightHandThumb1	RightHand
RightHandThumb2	RightHandThumb1
RightHandThumb3	RightHandThumb2
RightHandThumb4	RightHandThumb3
LeftUpLeg	Hips
LeftLeg	LeftUpLeg
LeftFoot	LeftLeg
LeftToeBase	LeftFoot
RightUpLeg	Hips
RightLeg	RightUpLeg
RightFoot	RightLeg
RightToeBase	RightFoot
[BasePosition]
Hips	0	0	0	0	0	0	1
Spine	0	0	0	0	0	0	1
Spine1	0	0	0	0	0	0	1
Spine2	0	0	0	0	0	0	1
Neck	0	0	0	0	0	0	1
Head	0	0	0	0	0	0	1
LeftEye	0	0	0	0	0	0	1
RightEye	0	0	0	0	0	0	1
LeftShoulder	0	0	0	0	0	0	1
LeftArm	0	0	0	0	0	0	1
LeftForeArm	0	0	0	0	0	0	1
LeftHand	0	0	0	0	0	0	1
LeftHandThumb1	0	0	0	0	0	0	1
LeftHandThumb2	0	0	0	0	0	0	1
LeftHandThumb3	0	0	0	0	0	0	1
LeftHandThumb4	0	0	0	0	0	0	1
LeftHandIndex1	0	0	0	0	0	0	1
LeftHandIndex2	0	0	0	0	0	0	1
LeftHandIndex3	0	0	0	0	0	0	1
LeftHandIndex4	0	0	0	0	0	0	1
LeftHandMiddle1	0	0	0	0	0	0	1
LeftHandMiddle2	0	0	0	0	0	0	1
LeftHandMiddle3	0	0	0	0	0	0	1
LeftHandMiddle4	0	0	0	0	0	0	1
LeftHandRing1	0	0	0	0	0	0	1
LeftHandRing2	0	0	0	0	0	0	1
LeftHandRing3	0	0	0	0	0	0	1
LeftHandRing4	0	0	0	0	0	0	1
LeftHandPinky1	0	0	0	0	0	0	1
LeftHandPinky2	0	0	0	0	0	0	1
LeftHandPinky3	0	0	0	0	0	0	1
LeftHandPinky4	0	0	0	0	0	0	1
RightShoulder	0	0	0	0	0	0	1
RightArm	0	0	0	0	0	0	1
RightForeArm	0	0	0	0	0	0	1
RightHand	0	0	0	0	0	0	1
RightHandPinky1	0	0	0	0	0	0	1
RightHandPinky2	0	0	0	0	0	0	1
RightHandPinky3	0	0	0	0	0	0	1
RightHandPinky4	0	0	0	0	0	0	1
RightHandRing1	0	0	0	0	0	0	1
RightHandRing2	0	0	0	0	0	0	1
RightHandRing3	0	0	0	0	0	0	1
RightHandRing4	0	0	0	0	0	0	1
RightHandMiddle1	0	0	0	0	0	0	1
RightHandMiddle2	0	0	0	0	0	0	1
RightHandMiddle3	0	0	0	0	0	0	1
RightHandMiddle4	0	0	0	0	0	0	1
RightHandIndex1	0	0	0	0	0	0	1
RightHandIndex2	0	0	0	0	0	0	1
RightHandIndex3	0	0	0	0	0	0	1
RightHandIndex4	0	0	0	0	0	0	1
RightHandThumb1	0	0	0	0	0	0	1
RightHandThumb2	0	0	0	0	0	0	1
RightHandThumb3	0	0	0	0	0	0	1
RightHandThumb4	0	0	0	0	0	0	1
LeftUpLeg	0	0	0	0	0	0	1
LeftLeg	0	0	0	0	0	0	1
LeftFoot	0	0	0	0	0	0	1
LeftToeBase	0	0	0	0	0	0	1
RightUpLeg	0	0	0	0	0	0	1
RightLeg	0	0	0	0	0	0	1
RightFoot	0	0	0	0	0	0	1
RightToeBase	0	0	0	0	0	0	1
[Hips]
27	47.95944977	1281.672241	-65.66977692	16.81082344	4.593679428	-4.567938805	1.0
28	54.30071259	1253.042969	-51.8298912	14.66065121	2.086113691	-5.343773842	1.0
29	65.20949554	1221.983643	-35.66286469	12.39772701	-0.1417155713	-5.7626791	1.0
[Spine]
27	0	101.8159943	1.315000057	12.95353031	1.867641091	0.3270740807	1.0
28	0	101.8159943	1.315000057	12.25333595	3.376207829	1.596917748	1.0
29	0	101.8159943	1.315000057	11.1429615	4.11697197	3.065012932	1.0
[Spine1]
27	0	100.8349991	-10.00800037	4.884209156	1.431962848	0.6577806473	1.0
28	0	100.8349991	-10.00800037	4.624544621	1.932961226	1.325795054	1.0
29	0	100.8349991	-10.00800037	4.098804474	2.232921362	1.832326055	1.0
[Spine2]
27	0	91	-13.73399925	4.85746336	1.435543418	0.5212752819	1.0
28	0	91	-13.73399925	4.612751007	1.950407028	1.190061688	1.0
29	0	91	-13.73399925	4.09036684	2.272904634	1.701245308	1.0
[Neck]
27	0	166.7169952	-25.16200066	19.08070183	-1.016612172	-3.878353596	1.0
28	0	166.7169952	-25.16200066	19.03061295	-1.348583698	-4.265973091	1.0
29	0	166.7169952	-25.16200066	19.53892136	-1.544799328	-4.305021763	1.0
[Head]
27	0	96.17900085	16.84999847	-33.85181808	-7.092092991	11.08279705	1.0
28	0	96.17900085	16.84999847	-31.75701332	-8.140032768	9.281910896	1.0
29	0	96.17900085	16.84999847	-27.82921028	-8.594204903	7.008665085	1.0
[LeftEye]
27	30.6760006	64.09500122	92.83599854	0	0	0	1.0
28	30.6760006	64.09500122	92.83599854	0	0	0	1.0
29	30.6760006	64.09500122	92.83599854	0	0	0	1.0
[RightEye]
27	-30.6760006	64.09500122	92.83499908	0	0	0	1.0
28	-30.6760006	64.09500122	92.83499908	0	0	0	1.0
29	-30.6760006	64.09500122	92.83499908	0	0	0	1.0
[LeftShoulder]
27	45.70400238	109.4599991	-26.28000069	1.573915839	-4.95063591	24.99942398	1.0
28	45.70400238	109.4599991	-26.28000069	2.312053442	-2.357499123	27.36907768	1.0
29	45.70400238	109.4599991	-26.28000069	3.261032104	1.208198905	29.16037369	1.0
[LeftArm]
27	105.923996	-5.24600029	-22.32099915	-23.09649086	-22.08242798	28.26791954	1.0
28	105.923996	-5.24600029	-22.32099915	-11.29690456	-22.72599411	18.85900688	1.0
29	105.923996	-5.24600029	-22.32099915	0.7681390047	-22.36981773	7.298830509	1.0
[LeftForeArm]
27	278.414978	-0.0009999999311	0	-6.132544058e-06	-48.7385788	-0.000195443863	1.0
28	278.414978	-0.0009999999311	0	-2.471946573e-05	-53.76905441	-0.0001954741019	1.0
29	278.414978	-0.0009999999311	0	5.413027338e-06	-62.20383453	-0.0001966095733	1.0
[LeftHand]
27	283.2879944	0	0	-39.26456451	1.592795253	28.45497513	1.0
28	283.2879944	0	0	-39.50669098	-1.026444912	33.70404434	1.0
29	283.2879944	0	0	-35.69796753	-4.123826027	41.01793289	1.0
[LeftHandThumb1]
27	24.6609993	-15.75	26.8239994	-2.698158979	-3.709725142	2.989590645	1.0
28	24.6609993	-15.75	26.8239994	-2.667380571	-3.624635696	3.013527632	1.0
29	24.6609993	-15.75	26.8239994	-2.697733641	-3.7094841	2.989202023	1.0
[LeftHandThumb2]
27	32.29800034	-18.64699936	18.64699936	0.1333839446	0.9944325089	14.94182491	1.0
28	32.29800034	-18.64699936	18.64699936	2.414999485	1.552505016	14.61529636	1.0
29	32.29800034	-18.64699936	18.64699936	4.482435703	0.04629059136	13.23065376	1.0
[LeftHandThumb3]
27	26.52600098	-15.31499958	15.31499958	-21.69058418	-10.39002895	11.13409042	1.0
28	26.52600098	-15.31499958	15.31499958	-22.35079765	-14.45360947	9.408755302	1.0
29	26.52600098	-15.31499958	15.31499958	-22.84078026	-16.46235466	9.101716995	1.0
[LeftHandThumb4]
27	19.54599953	-11.28499985	11.28499985	0	0	0	1.0
28	19.54599953	-11.28499985	11.28499985	0	0	0	1.0
29	19.54599953	-11.28499985	11.28499985	0	0	0	1.0
[LeftHandIndex1]
27	91.09299469	-5.170999527	22.60099792	0.5056670904	-15.86522484	-2.834513664	1.0
28	91.09299469	-5.170999527	22.60099792	0.9423513412	-14.07659626	-4.914636612	1.0
29	91.09299469	-5.170999527	22.60099792	1.210722446	-13.46322536	-5.471029758	1.0
[LeftHandIndex2]
27	36.76399994	0	0	-0.254144907	1.704524517	-16.95942116	1.0
28	36.76399994	0	0	-0.2643963099	1.737796187	-17.30055428	1.0
29	36.76399994	0	0	-0.2803348601	1.788140655	-17.81853485	1.0
[LeftHandIndex3]
27	28.83100128	0	0	-0.05172289163	0.7758747339	-7.627880096	1.0
28	28.83100128	0	0	-0.05638745055	0.8099618554	-7.965445518	1.0
29	28.83100128	0	0	-0.06389499456	0.8618552089	-8.479483604	1.0
[LeftHandIndex4]
27	23.92700005	0	0	0	0	0	1.0
28	23.92700005	0	0	0	0	0	1.0
29	23.92700005	0	0	0	0	0	1.0
[LeftHandMiddle1]
27	95.33399963	0	0	-0.3248498142	1.537429929	-8.094566345	1.0
28	95.33399963	0	0	-0.3390935063	1.749033451	-8.344549179	1.0
29	95.33399963	0	0	-0.2518565953	1.068199992	-6.766075611	1.0
[LeftHandMiddle2]
27	36.98199844	0	0	-0.277436763	1.779093742	-17.7255497	1.0
28	36.98199844	0	0	-0.2791257799	1.784370542	-17.78001213	1.0
29	36.98199844	0	0	-0.2807563841	1.789458275	-17.83231163	1.0
[LeftHandMiddle3]
27	29.50900078	0	0	-0.3097782731	1.877234697	-18.73935127	1.0
28	29.50900078	0	0	-0.3115428686	1.882430673	-18.79319382	1.0
29	29.50900078	0	0	-0.3133329451	1.887649894	-18.84734535	1.0
[LeftHandMiddle4]
27	28.3390007	0	0	0	0	0	1.0
28	28.3390007	0	0	0	0	0	1.0
29	28.3390007	0	0	0	0	0	1.0
[LeftHandRing1]
27	91.04499817	-0.4390000105	-18.65100098	-0.6256415248	11.77117443	-13.91879177	1.0
28	91.04499817	-0.4390000105	-18.65100098	-0.631033361	11.7591877	-13.99743176	1.0
29	91.04499817	-0.4390000105	-18.65100098	-0.5648092628	11.80842972	-13.0014801	1.0
[LeftHandRing2]
27	31.54000092	0	0	-0.3955416083	2.113084793	-21.20234489	1.0
28	31.54000092	0	0	-0.3861806691	2.088826418	-20.94718552	1.0
29	31.54000092	0	0	-0.381808728	2.077363014	-20.82666588	1.0
[LeftHandRing3]
27	29.37700081	0	0	-0.2912091017	1.821614385	-18.16389465	1.0
28	29.37700081	0	0	-0.2832144201	1.797074795	-17.91075897	1.0
29	29.37700081	0	0	-0.2794693112	1.785443544	-17.79090881	1.0
[LeftHandRing4]
27	26.47500038	0	0	0	0	0	1.0
28	26.47500038	0	0	0	0	0	1.0
29	26.47500038	0	0	0	0	0	1.0
[LeftHandPinky1]
27	80.77799988	-4.887000084	-38.06099701	-0.9676563144	24.766922	-20.09732437	1.0
28	80.77799988	-4.887000084	-38.06099701	-0.8600487709	24.50294876	-18.86558533	1.0
29	80.77799988	-4.887000084	-38.06099701	-0.8863988519	24.19607925	-18.2904644	1.0
[LeftHandPinky2]
27	36	0	0	-0.2706587315	1.757758021	-17.50577927	1.0
28	36	0	0	-0.2705274522	1.757334113	-17.50148582	1.0
29	36	0	0	-0.2894507349	1.816230059	-18.10848808	1.0
[LeftHandPinky3]
27	21.14200211	0	0	-0.2436769754	1.669832945	-16.60361862	1.0
28	21.14200211	0	0	-0.2435783893	1.669516325	-16.60045815	1.0
29	21.14200211	0	0	-0.2615166008	1.728521705	-17.20522308	1.0
[LeftHandPinky4]
27	19.75699997	0	0	0	0	0	1.0
28	19.75699997	0	0	0	0	0	1.0
29	19.75699997	0	0	0	0	0	1.0
[RightShoulder]
27	-45.70000076	109.4620056	-26.28000069	-2.002721548	13.77954102	-30.43663979	1.0
28	-45.70000076	109.4620056	-26.28000069	-2.396214008	15.26583862	-29.64255333	1.0
29	-45.70000076	109.4620056	-26.28000069	-2.8960917	16.77986145	-29.33171463	1.0
[RightArm]
27	-105.9280014	-5.248000145	-22.32099915	-24.91770554	-15.50928211	21.12890434	1.0
28	-105.9280014	-5.248000145	-22.32099915	-23.12911415	-14.51031971	17.59906769	1.0
29	-105.9280014	-5.248000145	-22.32099915	-15.98310089	-15.43624115	15.29602909	1.0
[RightForeArm]
27	-278.414978	0	0	-2.349022907e-06	37.2498436	2.653620435e-08	1.0
28	-278.414978	0	0	-1.542086579e-06	37.69513702	3.319351549e-07	1.0
29	-278.414978	0	0	1.595675599e-06	40.66444016	9.720787375e-07	1.0
[RightHand]
27	-283.2879944	0	0.0009999999311	-12.14675236	-2.574183226	-18.63493156	1.0
28	-283.2879944	0	0.0009999999311	-13.06490993	-1.202227592	-21.82587242	1.0
29	-283.2879944	0	0.0009999999311	-10.47388268	-0.2262529135	-26.94828224	1.0
[RightHandPinky1]
27	-80.76699829	-4.885000229	-38.06000137	-0.9084365368	-21.07596588	21.13165474	1.0
28	-80.76699829	-4.885000229	-38.06000137	-1.054017067	-19.39442635	22.13059044	1.0
29	-80.76699829	-4.885000229	-38.06000137	-0.9758951664	-18.86493301	20.38684845	1.0
[RightHandPinky2]
27	-36	0	0.0009999999311	-0.1967709213	-1.336848974	16.76549721	1.0
28	-36	0	0.0009999999311	-0.1490813494	-1.166708946	14.5828867	1.0
29	-36	0	0.0009999999311	-0.09066975117	-0.9128108621	11.36463451	1.0
[RightHandPinky3]
27	-21.14200211	0	0	-0.1775667071	-1.271280766	15.9018755	1.0
28	-21.14200211	0	0	-0.13224639	-1.099876881	13.71179485	1.0
29	-21.14200211	0	0	-0.07971617579	-0.8564231992	10.63559055	1.0
[RightHandPinky4]
27	-19.75699997	0	0	0	0	0	1.0
28	-19.75699997	0	0	0	0	0	1.0
29	-19.75699997	0	0	0	0	0	1.0
[RightHandRing1]
27	-91.03599548	-0.4390000105	-18.65100098	-0.7277033925	-9.546539307	15.79419231	1.0
28	-91.03599548	-0.4390000105	-18.65100098	-0.7774765491	-7.815476894	16.42363167	1.0
29	-91.03599548	-0.4390000105	-18.65100098	-0.7266125679	-6.284956455	15.49294567	1.0
[RightHandRing2]
27	-31.54000092	0	0	-0.269125998	-1.557132483	19.61046028	1.0
28	-31.54000092	0	0	-0.208127737	-1.37400651	17.22584534	1.0
29	-31.54000092	0	0	-0.147831291	-1.161883473	14.50159931	1.0
[RightHandRing3]
27	-29.37700081	0	0	-0.1922595948	-1.321777344	16.55169296	1.0
28	-29.37700081	0	0	-0.1406910568	-1.133918762	14.14509583	1.0
29	-29.37700081	0	0	-0.09168755263	-0.9178525209	11.40847206	1.0
[RightHandRing4]
27	-26.47500038	0	0	0	0	0	1.0
28	-26.47500038	0	0	0	0	0	1.0
29	-26.47500038	0	0	0	0	0	1.0
[RightHandMiddle1]
27	-95.32500458	0	0	-0.5298568606	-1.34097743	12.06197071	1.0
28	-95.32500458	0	0	-0.504108727	-1.127321839	11.60825062	1.0
29	-95.32500458	0	0	-0.4821900129	-0.4204975069	11.24845123	1.0
[RightHandMiddle2]
27	-36.98199844	0	0	-0.1069715917	-0.9906097054	12.32672119	1.0
28	-36.98199844	0	0	-0.09780596942	-0.9476672411	11.78459454	1.0
29	-36.98199844	0	0	-0.08736547828	-0.8961940408	11.13576698	1.0
[RightHandMiddle3]
27	-29.50900078	0	0	-0.1252117157	-1.072660208	13.34048843	1.0
28	-29.50900078	0	0	-0.1154269353	-1.030540347	12.80625439	1.0
29	-29.50900078	0	0	-0.1044321284	-0.9809190631	12.17867374	1.0
[RightHandMiddle4]
27	-28.3390007	0	0.0009999999311	0	0	0	1.0
28	-28.3390007	0	0.0009999999311	0	0	0	1.0
29	-28.3390007	0	0.0009999999311	0	0	0	1.0
[RightHandIndex1]
27	-91.08300018	-5.167999744	22.60099792	-0.02362232842	18.68602562	9.526357651	1.0
28	-91.08300018	-5.167999744	22.60099792	-0.04988439381	18.67595673	9.512691498	1.0
29	-91.08300018	-5.167999744	22.60099792	0.007784725633	18.44064331	7.80033493	1.0
[RightHandIndex2]
27	-36.76399994	0	0	-0.135057956	-1.111324906	13.85778618	1.0
28	-36.76399994	0	0	-0.1043009087	-0.9782871008	12.17120075	1.0
29	-36.76399994	0	0	-0.07314293087	-0.8206627965	10.18666458	1.0
[RightHandIndex3]
27	-28.83100128	0	0	-0.01510365028	-0.374058485	4.623127937	1.0
28	-28.83100128	0	0	-0.007322383113	-0.2605834305	3.219103336	1.0
29	-28.83100128	0	0	-0.001735156286	-0.1268767565	1.566690445	1.0
[RightHandIndex4]
27	-23.92700005	0	0	0	0	0	1.0
28	-23.92700005	0	0	0	0	0	1.0
29	-23.92700005	0	0	0	0	0	1.0
[RightHandThumb1]
27	-24.64799881	-15.72700024	26.82600021	-4.990110397	9.20249176	-1.554948568	1.0
28	-24.64799881	-15.72700024	26.82600021	-4.833282948	8.767007828	-1.659695983	1.0
29	-24.64799881	-15.72700024	26.82600021	-4.577959538	8.054917336	-1.834518671	1.0
[RightHandThumb2]
27	-32.29800034	-18.64699936	18.64699936	15.23670197	2.899244547	-20.52307701	1.0
28	-32.29800034	-18.64699936	18.64699936	15.31175137	2.229120731	-21.12689972	1.0
29	-32.29800034	-18.64699936	18.64699936	15.4294281	0.7142704129	-21.10519981	1.0
[RightHandThumb3]
27	-26.52600098	-15.31399918	15.31399918	-15.10963631	-6.689273357	-18.52256775	1.0
28	-26.52600098	-15.31399918	15.31399918	-15.52868652	-6.517709732	-22.14977074	1.0
29	-26.52600098	-15.31399918	15.31399918	-15.88729954	-6.475837231	-25.45521164	1.0
[RightHandThumb4]
27	-19.54599953	-11.28499985	11.28499985	0	0	0	1.0
28	-19.54599953	-11.28499985	11.28499985	0	0	0	1.0
29	-19.54599953	-11.28499985	11.28499985	0	0	0	1.0
[LeftUpLeg]
27	82.07800293	-67.51699829	-15.99599934	-99.91252899	17.6839447	-7.748089314	1.0
28	82.07800293	-67.51699829	-15.99599934	-82.62670135	23.0906868	-3.543834448	1.0
29	82.07800293	-67.51699829	-15.99599934	-64.11811066	24.09890747	0.5157079101	1.0
[LeftLeg]
27	0	-443.7049866	2.845999956	111.3182907	-1.887988329	1.688906908	1.0
28	0	-443.7049866	2.845999956	93.4599762	0.7344353199	3.088338852	1.0
29	0	-443.7049866	2.845999956	70.14289093	2.725273371	-1.517850399	1.0
[LeftFoot]
27	0	-444.2789917	-29.8219986	-10.17663097	0.1795848757	2.697923899	1.0
28	0	-444.2789917	-29.8219986	-4.679231167	-0.2682651579	0.2428416759	1.0
29	0	-444.2789917	-29.8219986	4.961191177	-0.4239721298	-3.060459375	1.0
[LeftToeBase]
27	0	-87.28699493	107.1060028	-6.30104208	-3.774047627e-06	5.541354312e-06	1.0
28	0	-87.28699493	107.1060028	-5.59363842	2.89176171e-07	9.20246805e-07	1.0
29	0	-87.28699493	107.1060028	-5.661474705	-7.467585419e-06	-8.88915929e-06	1.0
[RightUpLeg]
27	-82.07800293	-67.51699829	-15.99599934	-114.2894211	-12.13153458	-0.9117099047	1.0
28	-82.07800293	-67.51699829	-15.99599934	-118.6323395	-8.880090714	1.670892358	1.0
29	-82.07800293	-67.51699829	-15.99599934	-110.2007828	-7.826649666	2.514561653	1.0
[RightLeg]
27	0	-443.7049866	2.861999989	119.9432983	-0.1791817397	-1.488224864	1.0
28	0	-443.7049866	2.861999989	127.3307724	2.97282958	-2.828837633	1.0
29	0	-443.7049866	2.861999989	126.6221466	3.328588963	-4.230935097	1.0
[RightFoot]
27	0	-444.2770081	-29.83799934	-6.538555145	-0.4415058792	7.444716454	1.0
28	0	-444.2770081	-29.83799934	-4.773149014	-0.9432317615	6.186160564	1.0
29	0	-444.2770081	-29.83799934	-0.6607055664	-1.196530938	6.362338543	1.0
[RightToeBase]
27	0	-87.28699493	107.1060028	-8.202982903	1.250674813e-06	-5.582636504e-07	1.0
28	0	-87.28699493	107.1060028	-9.674530029	2.904964731e-06	1.280053084e-06	1.0
29	0	-87.28699493	107.1060028	-10.513587	5.405795036e-06	-2.945266033e-06	1.0
[EndOfFile]
